<svg width="1200" height="800" viewBox="0 0 1200 800" fill="none" xmlns="http://www.w3.org/2000/svg">
  <rect width="1200" height="800" rx="40" fill="#07111C"/>
  <rect x="36" y="36" width="1128" height="728" rx="32" fill="url(#bg)"/>
  <ellipse cx="976" cy="166" rx="126" ry="104" fill="#22D3EE" fill-opacity="0.11"/>
  <rect x="116" y="160" width="420" height="420" rx="32" fill="#081C2C" stroke="#7DD3FC" stroke-opacity="0.22"/>
  <rect x="186" y="216" width="280" height="52" rx="18" fill="#F8FAFC" fill-opacity="0.92"/>
  <rect x="186" y="306" width="280" height="52" rx="18" fill="#0EA5E9" fill-opacity="0.18" stroke="#38BDF8" stroke-opacity="0.28"/>
  <rect x="186" y="396" width="280" height="52" rx="18" fill="#14B8A6" fill-opacity="0.15" stroke="#2DD4BF" stroke-opacity="0.28"/>
  <path d="M220 332H309" stroke="#E0F2FE" stroke-width="16" stroke-linecap="round"/>
  <path d="M220 422H372" stroke="#CCFBF1" stroke-width="16" stroke-linecap="round"/>
  <path d="M628 205H1048" stroke="#E0F2FE" stroke-width="42" stroke-linecap="round"/>
  <path d="M628 304H998" stroke="#7DD3FC" stroke-opacity="0.42" stroke-width="20" stroke-linecap="round"/>
  <path d="M628 372H1038" stroke="#7DD3FC" stroke-opacity="0.26" stroke-width="20" stroke-linecap="round"/>
  <rect x="628" y="458" width="366" height="138" rx="28" fill="#08253A"/>
  <rect x="1020" y="458" width="92" height="138" rx="28" fill="#0EA5E9"/>
  <path d="M1050 523H1082" stroke="white" stroke-width="12" stroke-linecap="round"/>
  <path d="M1066 507V539" stroke="white" stroke-width="12" stroke-linecap="round"/>
  <text x="116" y="96" fill="#BAE6FD" font-size="28" font-family="Arial, sans-serif" letter-spacing="4">FINANCIO</text>
  <text x="116" y="704" fill="white" font-size="64" font-family="Arial, sans-serif" font-weight="700">Data Patching Support</text>
  <defs>
    <linearGradient id="bg" x1="84" y1="84" x2="1110" y2="720" gradientUnits="userSpaceOnUse">
      <stop stop-color="#0F172A"/>
      <stop offset="1" stop-color="#082F49"/>
    </linearGradient>
  </defs>
</svg>