<svg width="1200" height="800" viewBox="0 0 1200 800" fill="none" xmlns="http://www.w3.org/2000/svg">
  <rect width="1200" height="800" rx="40" fill="#071120"/>
  <rect x="36" y="36" width="1128" height="728" rx="32" fill="url(#bg)" stroke="#38BDF8" stroke-opacity="0.22"/>
  <circle cx="940" cy="175" r="130" fill="#0EA5E9" fill-opacity="0.12"/>
  <circle cx="240" cy="610" r="170" fill="#14B8A6" fill-opacity="0.12"/>
  <rect x="110" y="134" width="420" height="250" rx="24" fill="#081426" stroke="#67E8F9" stroke-opacity="0.18"/>
  <path d="M175 215L222 262L341 154" stroke="#67E8F9" stroke-width="22" stroke-linecap="round" stroke-linejoin="round"/>
  <rect x="610" y="134" width="470" height="46" rx="23" fill="#E0F2FE" fill-opacity="0.92"/>
  <rect x="610" y="206" width="360" height="24" rx="12" fill="#BAE6FD" fill-opacity="0.55"/>
  <rect x="110" y="470" width="970" height="180" rx="28" fill="#082032" stroke="#38BDF8" stroke-opacity="0.18"/>
  <path d="M178 565H754" stroke="#38BDF8" stroke-opacity="0.3" stroke-width="20" stroke-linecap="round"/>
  <path d="M178 610H648" stroke="#67E8F9" stroke-opacity="0.22" stroke-width="20" stroke-linecap="round"/>
  <rect x="862" y="515" width="150" height="90" rx="22" fill="#0EA5E9"/>
  <path d="M916 548L958 589" stroke="white" stroke-width="14" stroke-linecap="round"/>
  <path d="M958 548L916 589" stroke="white" stroke-width="14" stroke-linecap="round"/>
  <text x="110" y="96" fill="#D9F99D" font-size="28" font-family="Arial, sans-serif" letter-spacing="4">FINANCIO</text>
  <text x="110" y="704" fill="white" font-size="64" font-family="Arial, sans-serif" font-weight="700">Bug Fix Delivery</text>
  <defs>
    <linearGradient id="bg" x1="95" y1="76" x2="1088" y2="712" gradientUnits="userSpaceOnUse">
      <stop stop-color="#0F172A"/>
      <stop offset="1" stop-color="#082F49"/>
    </linearGradient>
  </defs>
</svg>