<svg width="1200" height="800" viewBox="0 0 1200 800" fill="none" xmlns="http://www.w3.org/2000/svg">
  <rect width="1200" height="800" rx="40" fill="#0D1220"/>
  <rect x="36" y="36" width="1128" height="728" rx="32" fill="url(#bg)"/>
  <circle cx="936" cy="172" r="146" fill="#F59E0B" fill-opacity="0.12"/>
  <rect x="114" y="136" width="276" height="524" rx="28" fill="#101C2D" stroke="#FBBF24" stroke-opacity="0.24"/>
  <rect x="812" y="136" width="244" height="524" rx="28" fill="#101C2D" stroke="#FDE68A" stroke-opacity="0.24"/>
  <rect x="466" y="178" width="284" height="110" rx="28" fill="#1E293B"/>
  <path d="M531 232H685" stroke="#FDE68A" stroke-width="20" stroke-linecap="round"/>
  <rect x="168" y="208" width="168" height="34" rx="17" fill="#FEF3C7" fill-opacity="0.9"/>
  <path d="M168 292H306" stroke="#FCD34D" stroke-width="18" stroke-linecap="round"/>
  <path d="M168 350H286" stroke="#FDE68A" stroke-opacity="0.45" stroke-width="18" stroke-linecap="round"/>
  <rect x="864" y="214" width="140" height="180" rx="18" fill="#F59E0B" fill-opacity="0.15"/>
  <rect x="892" y="244" width="84" height="84" rx="12" fill="#FDE68A" fill-opacity="0.82"/>
  <circle cx="934" cy="486" r="24" fill="#FBBF24"/>
  <path d="M464 388H752" stroke="#FDE68A" stroke-opacity="0.28" stroke-width="18" stroke-linecap="round"/>
  <path d="M464 454H710" stroke="#FDE68A" stroke-opacity="0.22" stroke-width="18" stroke-linecap="round"/>
  <text x="114" y="96" fill="#FDE68A" font-size="28" font-family="Arial, sans-serif" letter-spacing="4">THETA EDGE</text>
  <text x="114" y="716" fill="white" font-size="64" font-family="Arial, sans-serif" font-weight="700">POSLite</text>
  <defs>
    <linearGradient id="bg" x1="88" y1="88" x2="1110" y2="728" gradientUnits="userSpaceOnUse">
      <stop stop-color="#111827"/>
      <stop offset="1" stop-color="#452103"/>
    </linearGradient>
  </defs>
</svg>