<svg width="1200" height="800" viewBox="0 0 1200 800" fill="none" xmlns="http://www.w3.org/2000/svg">
  <defs>
    <linearGradient id="bg" x1="80" y1="90" x2="1110" y2="720" gradientUnits="userSpaceOnUse">
      <stop stop-color="#F7ECDD"/>
      <stop offset="1" stop-color="#F3E2CC"/>
    </linearGradient>
    <filter id="shadow" x="18" y="28" width="1164" height="744" filterUnits="userSpaceOnUse" color-interpolation-filters="sRGB">
      <feFlood flood-opacity="0" result="BackgroundImageFix"/>
      <feColorMatrix in="SourceAlpha" type="matrix" values="0 0 0 0 0 0 0 0 0 0 0 0 0 0 0 0 0 0 127 0" result="hardAlpha"/>
      <feOffset dy="18"/>
      <feGaussianBlur stdDeviation="24"/>
      <feColorMatrix type="matrix" values="0 0 0 0 0.196078 0 0 0 0 0.137255 0 0 0 0 0.101961 0 0 0 0.12 0"/>
      <feBlend mode="normal" in2="BackgroundImageFix" result="effect1_dropShadow_0_1"/>
      <feBlend mode="normal" in="SourceGraphic" in2="effect1_dropShadow_0_1" result="shape"/>
    </filter>
  </defs>

  <rect width="1200" height="800" rx="40" fill="#F5EADB"/>
  <g filter="url(#shadow)">
    <rect x="36" y="36" width="1128" height="728" rx="32" fill="url(#bg)"/>
  </g>
  <rect x="36" y="36" width="1128" height="76" fill="#F8F0E6"/>
  <rect x="68" y="56" width="44" height="44" rx="18" fill="#3D281E"/>
  <text x="79" y="84" fill="#FFFFFF" font-family="Arial, sans-serif" font-size="20" font-weight="700">R</text>
  <text x="126" y="78" fill="#2F201A" font-family="Georgia, serif" font-size="22">RestaurantStarter</text>
  <text x="126" y="98" fill="#9B826B" font-family="Arial, sans-serif" font-size="12" letter-spacing="4">MODERN CAFE TEMPLATE</text>
  <text x="414" y="79" fill="#5E4B3F" font-family="Arial, sans-serif" font-size="18">Home</text>
  <text x="480" y="79" fill="#7B6758" font-family="Arial, sans-serif" font-size="18">Menu</text>
  <text x="546" y="79" fill="#7B6758" font-family="Arial, sans-serif" font-size="18">About</text>
  <text x="612" y="79" fill="#7B6758" font-family="Arial, sans-serif" font-size="18">Contact</text>
  <rect x="838" y="55" width="176" height="42" rx="21" fill="#F8F0E6" stroke="#D8C5AF"/>
  <text x="872" y="81" fill="#6B584C" font-family="Arial, sans-serif" font-size="18">+6012-345 6789</text>
  <rect x="1030" y="55" width="126" height="42" rx="21" fill="#3B261D"/>
  <text x="1050" y="81" fill="#FFFFFF" font-family="Arial, sans-serif" font-size="18" font-weight="700">WhatsApp</text>

  <text x="68" y="182" fill="#C46E47" font-family="Arial, sans-serif" font-size="18" letter-spacing="5">MODERN MALAYSIAN CAFE TEMPLATE</text>
  <text x="68" y="264" fill="#2F201A" font-family="Georgia, serif" font-size="66">Food-first design</text>
  <text x="68" y="338" fill="#2F201A" font-family="Georgia, serif" font-size="66">for cafes that want</text>
  <text x="68" y="412" fill="#2F201A" font-family="Georgia, serif" font-size="66">more walk-ins</text>
  <text x="68" y="486" fill="#2F201A" font-family="Georgia, serif" font-size="66">and direct orders.</text>
  <text x="68" y="542" fill="#4B382F" font-family="Arial, sans-serif" font-size="20">Food-forward layout, clear calls to action, and a warmer local cafe feel.</text>

  <rect x="68" y="580" width="154" height="44" rx="22" fill="#3B261D"/>
  <text x="88" y="608" fill="#FFFFFF" font-family="Arial, sans-serif" font-size="18" font-weight="700">Order on WhatsApp</text>
  <rect x="236" y="580" width="92" height="44" rx="22" fill="#F7F0E6" stroke="#D6C0A8"/>
  <text x="265" y="608" fill="#6C584C" font-family="Arial, sans-serif" font-size="18">Call Now</text>

  <rect x="68" y="660" width="150" height="98" rx="24" fill="#FFF8F1" fill-opacity="0.82"/>
  <rect x="232" y="660" width="164" height="98" rx="24" fill="#FFF8F1" fill-opacity="0.82"/>
  <rect x="410" y="660" width="164" height="98" rx="24" fill="#FFF8F1" fill-opacity="0.82"/>
  <text x="86" y="712" fill="#3B261D" font-family="Georgia, serif" font-size="32">4.8/5</text>
  <text x="250" y="712" fill="#3B261D" font-family="Georgia, serif" font-size="32">7 days</text>
  <text x="428" y="712" fill="#3B261D" font-family="Georgia, serif" font-size="32">15 min</text>

  <rect x="624" y="208" width="418" height="518" rx="34" fill="#FFF9F2"/>
  <rect x="658" y="232" width="350" height="470" rx="28" fill="#F2E6D3"/>
  <rect x="680" y="232" width="174" height="30" rx="15" fill="#FFF9F2" stroke="#E2CFB6"/>
  <text x="697" y="252" fill="#C46E47" font-family="Arial, sans-serif" font-size="14" letter-spacing="3">WALK-INS WELCOME</text>
  <circle cx="835" cy="484" r="118" fill="#FFF7ED"/>
  <ellipse cx="846" cy="490" rx="96" ry="72" fill="#CB8B34"/>
  <ellipse cx="802" cy="534" rx="58" ry="44" fill="#F2D58E"/>
  <ellipse cx="910" cy="554" rx="54" ry="46" fill="#304E3F"/>
  <circle cx="781" cy="498" r="12" fill="#304E3F"/>
  <circle cx="889" cy="462" r="28" fill="#F8F0E6"/>
  <path d="M748 432C782 388 894 388 933 432" stroke="#D08D2D" stroke-width="10" stroke-linecap="round"/>

  <rect x="590" y="310" width="150" height="176" rx="24" fill="#FFFDFC"/>
  <text x="606" y="340" fill="#C46E47" font-family="Arial, sans-serif" font-size="14" letter-spacing="4">FEATURED PLATE</text>
  <text x="606" y="376" fill="#3B261D" font-family="Georgia, serif" font-size="22">Nasi Lemak</text>
  <text x="606" y="408" fill="#3B261D" font-family="Georgia, serif" font-size="22">Butter</text>
  <text x="606" y="440" fill="#3B261D" font-family="Georgia, serif" font-size="22">Chicken</text>

  <rect x="902" y="534" width="176" height="156" rx="26" fill="#3B261D"/>
  <text x="918" y="564" fill="#E7D8C7" font-family="Arial, sans-serif" font-size="14" letter-spacing="3">CAFE FAVORITE</text>
  <text x="918" y="600" fill="#FFFFFF" font-family="Georgia, serif" font-size="22">Gula Melaka</text>
  <text x="918" y="632" fill="#FFFFFF" font-family="Georgia, serif" font-size="22">Cheesecake</text>
</svg>
