<svg width="1200" height="800" viewBox="0 0 1200 800" fill="none" xmlns="http://www.w3.org/2000/svg">
  <defs>
    <linearGradient id="bg" x1="86" y1="74" x2="1110" y2="730" gradientUnits="userSpaceOnUse">
      <stop stop-color="#F7EBDD"/>
      <stop offset="1" stop-color="#F2DDC2"/>
    </linearGradient>
    <filter id="shadow" x="24" y="20" width="1152" height="760" filterUnits="userSpaceOnUse" color-interpolation-filters="sRGB">
      <feFlood flood-opacity="0" result="BackgroundImageFix"/>
      <feColorMatrix in="SourceAlpha" type="matrix" values="0 0 0 0 0 0 0 0 0 0 0 0 0 0 0 0 0 0 127 0" result="hardAlpha"/>
      <feOffset dy="18"/>
      <feGaussianBlur stdDeviation="20"/>
      <feColorMatrix type="matrix" values="0 0 0 0 0.196078 0 0 0 0 0.137255 0 0 0 0 0.101961 0 0 0 0.12 0"/>
      <feBlend mode="normal" in2="BackgroundImageFix" result="effect1_dropShadow_0_1"/>
      <feBlend mode="normal" in="SourceGraphic" in2="effect1_dropShadow_0_1" result="shape"/>
    </filter>
  </defs>

  <rect width="1200" height="800" rx="40" fill="#F4E8D8"/>
  <g filter="url(#shadow)">
    <rect x="40" y="36" width="1120" height="728" rx="32" fill="url(#bg)"/>
  </g>

  <rect x="84" y="78" width="210" height="38" rx="19" fill="#FFF6EA" stroke="#DEC8AE"/>
  <text x="108" y="103" fill="#C16F49" font-family="Arial, sans-serif" font-size="16" letter-spacing="4">RESTAURANTSTARTER</text>

  <text x="84" y="208" fill="#2F201A" font-family="Georgia, serif" font-size="78">Food-first</text>
  <text x="84" y="286" fill="#2F201A" font-family="Georgia, serif" font-size="78">restaurant</text>
  <text x="84" y="364" fill="#2F201A" font-family="Georgia, serif" font-size="78">landing page</text>
  <text x="84" y="442" fill="#4C392F" font-family="Arial, sans-serif" font-size="24">Warm branding, direct ordering cues, and cleaner cafe-style presentation.</text>

  <rect x="84" y="500" width="188" height="52" rx="26" fill="#3B261D"/>
  <text x="118" y="533" fill="#FFFFFF" font-family="Arial, sans-serif" font-size="22" font-weight="700">WhatsApp Order</text>
  <rect x="292" y="500" width="116" height="52" rx="26" fill="#F8F0E6" stroke="#D6C0A8"/>
  <text x="323" y="533" fill="#6C584C" font-family="Arial, sans-serif" font-size="22">Call Now</text>

  <rect x="84" y="620" width="142" height="96" rx="24" fill="#FFF8F1" fill-opacity="0.92"/>
  <rect x="244" y="620" width="156" height="96" rx="24" fill="#FFF8F1" fill-opacity="0.92"/>
  <rect x="418" y="620" width="156" height="96" rx="24" fill="#FFF8F1" fill-opacity="0.92"/>
  <text x="106" y="670" fill="#3B261D" font-family="Georgia, serif" font-size="34">4.8/5</text>
  <text x="266" y="670" fill="#3B261D" font-family="Georgia, serif" font-size="34">7 days</text>
  <text x="440" y="670" fill="#3B261D" font-family="Georgia, serif" font-size="34">15 min</text>

  <rect x="690" y="136" width="370" height="506" rx="38" fill="#FFF9F2"/>
  <rect x="724" y="168" width="302" height="438" rx="30" fill="#F2E6D3"/>
  <circle cx="875" cy="388" r="124" fill="#FFF7ED"/>
  <ellipse cx="892" cy="394" rx="100" ry="76" fill="#CB8A33"/>
  <ellipse cx="842" cy="446" rx="58" ry="46" fill="#F2D58E"/>
  <ellipse cx="950" cy="470" rx="58" ry="52" fill="#304E3F"/>
  <circle cx="818" cy="402" r="12" fill="#304E3F"/>
  <circle cx="920" cy="362" r="30" fill="#F7F0E6"/>
  <path d="M782 340C818 292 940 292 978 340" stroke="#D08D2D" stroke-width="12" stroke-linecap="round"/>

  <rect x="636" y="286" width="148" height="166" rx="24" fill="#FFFDFC"/>
  <text x="656" y="318" fill="#C46E47" font-family="Arial, sans-serif" font-size="14" letter-spacing="4">FEATURED PLATE</text>
  <text x="656" y="358" fill="#3B261D" font-family="Georgia, serif" font-size="24">Nasi Lemak</text>
  <text x="656" y="392" fill="#3B261D" font-family="Georgia, serif" font-size="24">Butter</text>
  <text x="656" y="426" fill="#3B261D" font-family="Georgia, serif" font-size="24">Chicken</text>

  <rect x="920" y="504" width="180" height="150" rx="28" fill="#3B261D"/>
  <text x="942" y="536" fill="#E7D8C7" font-family="Arial, sans-serif" font-size="14" letter-spacing="3">CAFE FAVORITE</text>
  <text x="942" y="576" fill="#FFFFFF" font-family="Georgia, serif" font-size="24">Gula Melaka</text>
  <text x="942" y="610" fill="#FFFFFF" font-family="Georgia, serif" font-size="24">Cheesecake</text>
</svg>
