<svg width="1200" height="800" viewBox="0 0 1200 800" fill="none" xmlns="http://www.w3.org/2000/svg">
  <rect width="1200" height="800" rx="40" fill="#130916"/>
  <rect x="36" y="36" width="1128" height="728" rx="32" fill="url(#bg)"/>
  <circle cx="950" cy="188" r="144" fill="#F472B6" fill-opacity="0.12"/>
  <rect x="122" y="118" width="290" height="566" rx="42" fill="#0F172A" stroke="#F9A8D4" stroke-opacity="0.32" stroke-width="8"/>
  <rect x="166" y="180" width="202" height="26" rx="13" fill="#FCE7F3" fill-opacity="0.88"/>
  <rect x="166" y="250" width="202" height="244" rx="24" fill="#EC4899" fill-opacity="0.15"/>
  <path d="M214 320H320" stroke="#FBCFE8" stroke-width="18" stroke-linecap="round"/>
  <path d="M214 382H286" stroke="#FBCFE8" stroke-opacity="0.7" stroke-width="18" stroke-linecap="round"/>
  <rect x="520" y="164" width="550" height="116" rx="28" fill="#2A1234"/>
  <rect x="568" y="206" width="292" height="34" rx="17" fill="#FDF2F8" fill-opacity="0.9"/>
  <path d="M520 360H1080" stroke="#F9A8D4" stroke-opacity="0.28" stroke-width="18" stroke-linecap="round"/>
  <path d="M520 428H980" stroke="#FBCFE8" stroke-opacity="0.22" stroke-width="18" stroke-linecap="round"/>
  <path d="M520 496H920" stroke="#FBCFE8" stroke-opacity="0.16" stroke-width="18" stroke-linecap="round"/>
  <text x="122" y="92" fill="#FBCFE8" font-size="28" font-family="Arial, sans-serif" letter-spacing="4">THETA EDGE</text>
  <text x="122" y="724" fill="white" font-size="64" font-family="Arial, sans-serif" font-weight="700">SakuPay iOS Maintenance</text>
  <defs>
    <linearGradient id="bg" x1="84" y1="84" x2="1114" y2="724" gradientUnits="userSpaceOnUse">
      <stop stop-color="#1F1630"/>
      <stop offset="1" stop-color="#3F0B2F"/>
    </linearGradient>
  </defs>
</svg>